<svg width="800" height="200" viewBox="0 0 800 200" fill="none" xmlns="http://www.w3.org/2000/svg">
<g clip-path="url(#clip0_814_10)">
<rect width="800" height="200" fill="#060606"/>
<path d="M371.349 84.6328C371.183 83.0821 370.485 81.8748 369.254 81.0107C368.034 80.1465 366.448 79.7145 364.495 79.7145C363.122 79.7145 361.944 79.9216 360.962 80.3359C359.979 80.7502 359.228 81.3125 358.707 82.0227C358.186 82.733 357.92 83.5438 357.908 84.4553C357.908 85.2128 358.079 85.8698 358.423 86.4261C358.778 86.9825 359.257 87.456 359.861 87.8466C360.464 88.2254 361.133 88.545 361.867 88.8054C362.601 89.0658 363.341 89.2848 364.087 89.4624L367.496 90.3146C368.869 90.6342 370.189 91.0663 371.455 91.6108C372.734 92.1553 373.876 92.8419 374.882 93.6705C375.9 94.4991 376.705 95.4993 377.297 96.6712C377.889 97.843 378.185 99.2161 378.185 100.79C378.185 102.921 377.64 104.797 376.551 106.419C375.462 108.029 373.888 109.29 371.828 110.201C369.78 111.101 367.3 111.55 364.388 111.55C361.559 111.55 359.103 111.112 357.02 110.237C354.948 109.361 353.327 108.082 352.155 106.401C350.995 104.72 350.367 102.673 350.273 100.258H356.754C356.848 101.524 357.239 102.578 357.925 103.418C358.612 104.259 359.506 104.886 360.607 105.3C361.719 105.715 362.962 105.922 364.335 105.922C365.768 105.922 367.022 105.709 368.099 105.283C369.188 104.845 370.041 104.241 370.656 103.472C371.272 102.69 371.585 101.779 371.597 100.737C371.585 99.7902 371.307 99.009 370.763 98.3935C370.218 97.7661 369.455 97.2453 368.472 96.831C367.502 96.4048 366.365 96.026 365.063 95.6946L360.926 94.6293C357.931 93.8598 355.564 92.6939 353.824 91.1314C352.096 89.5571 351.232 87.4678 351.232 84.8636C351.232 82.7211 351.812 80.8449 352.972 79.2351C354.143 77.6252 355.736 76.3764 357.748 75.4886C359.76 74.589 362.039 74.1392 364.584 74.1392C367.164 74.1392 369.425 74.589 371.366 75.4886C373.32 76.3764 374.853 77.6134 375.965 79.1996C377.078 80.7739 377.652 82.585 377.688 84.6328H371.349ZM416.55 92.8182C416.55 96.7363 415.816 100.092 414.349 102.886C412.893 105.667 410.904 107.798 408.383 109.278C405.873 110.757 403.026 111.497 399.842 111.497C396.658 111.497 393.805 110.757 391.284 109.278C388.774 107.786 386.786 105.65 385.318 102.868C383.862 100.074 383.134 96.7244 383.134 92.8182C383.134 88.9001 383.862 85.5502 385.318 82.7685C386.786 79.9749 388.774 77.8383 391.284 76.3587C393.805 74.879 396.658 74.1392 399.842 74.1392C403.026 74.1392 405.873 74.879 408.383 76.3587C410.904 77.8383 412.893 79.9749 414.349 82.7685C415.816 85.5502 416.55 88.9001 416.55 92.8182ZM409.927 92.8182C409.927 90.0601 409.495 87.7341 408.631 85.8402C407.779 83.9344 406.595 82.4962 405.08 81.5256C403.565 80.5431 401.819 80.0518 399.842 80.0518C397.865 80.0518 396.119 80.5431 394.604 81.5256C393.089 82.4962 391.899 83.9344 391.035 85.8402C390.183 87.7341 389.757 90.0601 389.757 92.8182C389.757 95.5762 390.183 97.9081 391.035 99.8139C391.899 101.708 393.089 103.146 394.604 104.129C396.119 105.099 397.865 105.585 399.842 105.585C401.819 105.585 403.565 105.099 405.08 104.129C406.595 103.146 407.779 101.708 408.631 99.8139C409.495 97.9081 409.927 95.5762 409.927 92.8182ZM442.54 84.6328C442.374 83.0821 441.676 81.8748 440.445 81.0107C439.226 80.1465 437.64 79.7145 435.686 79.7145C434.313 79.7145 433.136 79.9216 432.153 80.3359C431.171 80.7502 430.419 81.3125 429.898 82.0227C429.377 82.733 429.111 83.5438 429.099 84.4553C429.099 85.2128 429.271 85.8698 429.614 86.4261C429.969 86.9825 430.449 87.456 431.052 87.8466C431.656 88.2254 432.325 88.545 433.059 88.8054C433.792 89.0658 434.532 89.2848 435.278 89.4624L438.687 90.3146C440.06 90.6342 441.38 91.0663 442.647 91.6108C443.925 92.1553 445.067 92.8419 446.074 93.6705C447.092 94.4991 447.896 95.4993 448.488 96.6712C449.08 97.843 449.376 99.2161 449.376 100.79C449.376 102.921 448.832 104.797 447.743 106.419C446.654 108.029 445.079 109.29 443.02 110.201C440.972 111.101 438.492 111.55 435.58 111.55C432.751 111.55 430.295 111.112 428.211 110.237C426.14 109.361 424.518 108.082 423.346 106.401C422.186 104.72 421.559 102.673 421.464 100.258H427.945C428.04 101.524 428.43 102.578 429.117 103.418C429.803 104.259 430.697 104.886 431.798 105.3C432.911 105.715 434.154 105.922 435.527 105.922C436.959 105.922 438.214 105.709 439.291 105.283C440.38 104.845 441.232 104.241 441.848 103.472C442.463 102.69 442.777 101.779 442.789 100.737C442.777 99.7902 442.499 99.009 441.954 98.3935C441.41 97.7661 440.646 97.2453 439.664 96.831C438.693 96.4048 437.557 96.026 436.255 95.6946L432.118 94.6293C429.123 93.8598 426.755 92.6939 425.015 91.1314C423.287 89.5571 422.423 87.4678 422.423 84.8636C422.423 82.7211 423.003 80.8449 424.163 79.2351C425.335 77.6252 426.927 76.3764 428.939 75.4886C430.952 74.589 433.23 74.1392 435.775 74.1392C438.356 74.1392 440.617 74.589 442.558 75.4886C444.511 76.3764 446.044 77.6134 447.157 79.1996C448.269 80.7739 448.843 82.585 448.879 84.6328H442.54Z" fill="white"/>
<path d="M471 124.333C471 127.752 469.338 131.03 466.379 133.447C463.42 135.864 459.407 137.222 455.222 137.222H360.556L329 163V59.8889C329 56.4705 330.662 53.1922 333.621 50.7751C336.58 48.3579 340.593 47 344.778 47H455.222C459.407 47 463.42 48.3579 466.379 50.7751C469.338 53.1922 471 56.4705 471 59.8889V124.333Z" stroke="#C40000" stroke-width="8" stroke-linecap="round" stroke-linejoin="round"/>
</g>
<defs>
<clipPath id="clip0_814_10">
<rect width="800" height="200" fill="white"/>
</clipPath>
</defs>
</svg>
